# xmcd CD database file generated by OrangeCD 6.4
#
# Track frame offsets:
#	150
#	16201
#	32025
#	43700
#	77870
#	89978
#	107424
#	116970
#	132832
#	148480
#	164908
#	179321
#	189899
#	212939
#
# Disc length: 3053 seconds
#
# Revision: 0
# Processed by: cddbd v1.5.2PL0 Copyright (c) Steve Scherf et al.
# Submitted via: OrangeCD 6.4
#
DISCID=d20beb0e
DTITLE=Giant Sand - Blurry Blue Mountain
DYEAR=2010
DGENRE=
TTITLE0=Fields Of Green 
TTITLE1=Chunk Of Coal 
TTITLE2=The Last One 
TTITLE3=Monk's Mountain 
TTITLE4=Spell Bound 
TTITLE5=Ride The Rail 
TTITLE6=Lucky Star Love 
TTITLE7=Thin Line Man 
TTITLE8=No Tellin' 
TTITLE9=Brand New Swamp Thing
TTITLE10=Erosion
TTITLE11=Time Flies 
TTITLE12=Better Man Than Me 
TTITLE13=Love A Loser 
EXTD=
EXTT0=
EXTT1=
EXTT2=
EXTT3=
EXTT4=
EXTT5=
EXTT6=
EXTT7=
EXTT8=
EXTT9=
EXTT10=
EXTT11=
EXTT12=
EXTT13=
PLAYORDER=
